<svg width="23" height="20" viewBox="0 0 23 20" fill="none" xmlns="http://www.w3.org/2000/svg">
<path id="Vector" d="M22.706 2.96027C21.871 3.33027 20.974 3.58027 20.031 3.69327C21.004 3.11106 21.7319 2.19474 22.079 1.11527C21.1648 1.65826 20.1643 2.04047 19.121 2.24527C18.4194 1.49614 17.4901 0.999597 16.4773 0.832744C15.4646 0.665892 14.4251 0.838062 13.5202 1.32252C12.6154 1.80698 11.8958 2.57663 11.4732 3.51197C11.0505 4.44732 10.9485 5.49602 11.183 6.49527C9.33069 6.40227 7.51863 5.92082 5.86442 5.08218C4.21022 4.24353 2.75084 3.06643 1.581 1.62727C1.181 2.31727 0.951 3.11727 0.951 3.96927C0.950554 4.73627 1.13943 5.49151 1.50088 6.168C1.86232 6.84449 2.38516 7.42131 3.023 7.84727C2.28328 7.82373 1.55987 7.62385 0.913 7.26427V7.32427C0.912925 8.40001 1.28503 9.44265 1.96618 10.2753C2.64733 11.1079 3.59557 11.6792 4.65 11.8923C3.96378 12.078 3.24434 12.1053 2.546 11.9723C2.8435 12.8979 3.423 13.7073 4.20337 14.2872C4.98374 14.8671 5.92592 15.1884 6.898 15.2063C5.24783 16.5017 3.20989 17.2044 1.112 17.2013C0.740381 17.2014 0.369076 17.1797 0 17.1363C2.12948 18.5054 4.60834 19.2321 7.14 19.2293C15.71 19.2293 20.395 12.1313 20.395 5.97527C20.395 5.77527 20.39 5.57327 20.381 5.37327C21.2923 4.71424 22.0789 3.89817 22.704 2.96327L22.706 2.96027Z" fill="white"/>
</svg>
